<svg xmlns="http://www.w3.org/2000/svg" xmlns:xlink="http://www.w3.org/1999/xlink" width="230" zoomAndPan="magnify" viewBox="0 0 172.5 32.999998" height="44" preserveAspectRatio="xMidYMid meet" version="1.0"><defs><g/><clipPath id="796ebd01df"><path d="M 27.136719 6.753906 L 47.699219 6.753906 L 47.699219 26.175781 L 27.136719 26.175781 Z M 27.136719 6.753906 " clip-rule="nonzero"/></clipPath></defs><g fill="#ffffff" fill-opacity="1"><g transform="translate(64.829245, 21.990569)"><g><path d="M 5.375 -11.84375 C 6.101562 -11.84375 6.742188 -11.671875 7.296875 -11.328125 C 7.847656 -10.984375 8.304688 -10.414062 8.671875 -9.625 C 9.046875 -8.84375 9.328125 -7.789062 9.515625 -6.46875 C 9.710938 -5.144531 9.832031 -3.492188 9.875 -1.515625 C 9.882812 -1.035156 9.765625 -0.660156 9.515625 -0.390625 C 9.265625 -0.128906 8.910156 0 8.453125 0 L 8.203125 0 C 7.242188 0 6.765625 -0.4375 6.765625 -1.3125 C 6.765625 -1.539062 6.765625 -1.757812 6.765625 -1.96875 C 6.765625 -2.1875 6.757812 -2.398438 6.75 -2.609375 L 3.765625 -2.609375 C 3.765625 -2.429688 3.757812 -2.242188 3.75 -2.046875 C 3.75 -1.847656 3.75 -1.644531 3.75 -1.4375 C 3.75 -0.476562 3.28125 0 2.34375 0 C 1.894531 0 1.546875 -0.117188 1.296875 -0.359375 C 1.046875 -0.609375 0.925781 -0.972656 0.9375 -1.453125 C 0.945312 -1.910156 0.957031 -2.347656 0.96875 -2.765625 C 0.988281 -3.179688 1.007812 -3.578125 1.03125 -3.953125 C 1.164062 -5.941406 1.414062 -7.507812 1.78125 -8.65625 C 2.144531 -9.8125 2.625 -10.628906 3.21875 -11.109375 C 3.820312 -11.597656 4.539062 -11.84375 5.375 -11.84375 Z M 3.8125 -4.609375 L 6.6875 -4.609375 C 6.613281 -5.867188 6.507812 -6.847656 6.375 -7.546875 C 6.25 -8.253906 6.082031 -8.75 5.875 -9.03125 C 5.664062 -9.320312 5.421875 -9.46875 5.140625 -9.46875 C 4.859375 -9.46875 4.625 -9.320312 4.4375 -9.03125 C 4.25 -8.75 4.109375 -8.253906 4.015625 -7.546875 C 3.921875 -6.847656 3.851562 -5.867188 3.8125 -4.609375 Z M 3.8125 -4.609375 "/></g></g></g><g fill="#ffffff" fill-opacity="1"><g transform="translate(79.046645, 21.990569)"><g><path d="M 2.6875 0 C 1.738281 0 1.265625 -0.476562 1.265625 -1.4375 L 1.265625 -10.234375 C 1.265625 -11.191406 1.738281 -11.671875 2.6875 -11.671875 L 3 -11.671875 C 3.957031 -11.671875 4.4375 -11.191406 4.4375 -10.234375 L 4.4375 -1.4375 C 4.4375 -0.476562 3.957031 0 3 0 Z M 2.6875 0 "/></g></g></g><g fill="#ffffff" fill-opacity="1"><g transform="translate(88.143372, 21.990569)"><g><path d="M 4.40625 -2.453125 C 4.726562 -2.460938 5.046875 -2.472656 5.359375 -2.484375 C 5.671875 -2.492188 5.984375 -2.503906 6.296875 -2.515625 C 7.273438 -2.546875 7.765625 -2.140625 7.765625 -1.296875 C 7.765625 -0.429688 7.285156 0 6.328125 0 L 2.6875 0 C 2.226562 0 1.875 -0.117188 1.625 -0.359375 C 1.382812 -0.609375 1.269531 -0.96875 1.28125 -1.4375 C 1.28125 -2.175781 1.28125 -2.910156 1.28125 -3.640625 C 1.289062 -4.378906 1.296875 -5.113281 1.296875 -5.84375 C 1.296875 -6.570312 1.289062 -7.300781 1.28125 -8.03125 C 1.28125 -8.769531 1.28125 -9.503906 1.28125 -10.234375 C 1.269531 -10.703125 1.382812 -11.054688 1.625 -11.296875 C 1.875 -11.546875 2.226562 -11.671875 2.6875 -11.671875 L 3 -11.671875 C 3.957031 -11.671875 4.4375 -11.191406 4.4375 -10.234375 C 4.4375 -9.503906 4.429688 -8.769531 4.421875 -8.03125 C 4.410156 -7.300781 4.40625 -6.570312 4.40625 -5.84375 Z M 4.40625 -2.453125 "/></g></g></g><g fill="#ffffff" fill-opacity="1"><g transform="translate(99.834126, 21.990569)"><g><path d="M 9.453125 -10.546875 C 9.453125 -10.179688 9.328125 -9.898438 9.078125 -9.703125 C 8.828125 -9.503906 8.46875 -9.40625 8 -9.40625 C 7.726562 -9.414062 7.46875 -9.421875 7.21875 -9.421875 C 6.976562 -9.421875 6.726562 -9.421875 6.46875 -9.421875 L 6.46875 -5.84375 C 6.46875 -5.101562 6.46875 -4.367188 6.46875 -3.640625 C 6.46875 -2.910156 6.46875 -2.175781 6.46875 -1.4375 C 6.476562 -0.96875 6.359375 -0.609375 6.109375 -0.359375 C 5.867188 -0.117188 5.515625 0 5.046875 0 L 4.75 0 C 3.789062 0 3.3125 -0.476562 3.3125 -1.4375 C 3.320312 -2.164062 3.332031 -2.894531 3.34375 -3.625 C 3.351562 -4.363281 3.359375 -5.101562 3.359375 -5.84375 C 3.359375 -6.4375 3.351562 -7.035156 3.34375 -7.640625 C 3.332031 -8.242188 3.328125 -8.835938 3.328125 -9.421875 C 3.097656 -9.421875 2.859375 -9.421875 2.609375 -9.421875 C 2.367188 -9.421875 2.125 -9.414062 1.875 -9.40625 C 1.394531 -9.40625 1.03125 -9.503906 0.78125 -9.703125 C 0.539062 -9.898438 0.421875 -10.179688 0.421875 -10.546875 C 0.421875 -11.296875 0.898438 -11.671875 1.859375 -11.671875 L 8.015625 -11.671875 C 8.972656 -11.671875 9.453125 -11.296875 9.453125 -10.546875 Z M 9.453125 -10.546875 "/></g></g></g><g fill="#ffffff" fill-opacity="1"><g transform="translate(113.108247, 21.990569)"><g><path d="M 5.796875 0.171875 C 2.492188 0.171875 0.84375 -1.832031 0.84375 -5.84375 C 0.84375 -9.84375 2.492188 -11.84375 5.796875 -11.84375 C 9.085938 -11.84375 10.734375 -9.84375 10.734375 -5.84375 C 10.734375 -1.832031 9.085938 0.171875 5.796875 0.171875 Z M 5.796875 -2.109375 C 6.242188 -2.109375 6.585938 -2.21875 6.828125 -2.4375 C 7.078125 -2.664062 7.253906 -3.050781 7.359375 -3.59375 C 7.460938 -4.132812 7.515625 -4.882812 7.515625 -5.84375 C 7.515625 -6.800781 7.460938 -7.546875 7.359375 -8.078125 C 7.253906 -8.617188 7.078125 -9 6.828125 -9.21875 C 6.585938 -9.445312 6.242188 -9.5625 5.796875 -9.5625 C 5.359375 -9.5625 5.007812 -9.445312 4.75 -9.21875 C 4.5 -9 4.320312 -8.617188 4.21875 -8.078125 C 4.113281 -7.546875 4.0625 -6.800781 4.0625 -5.84375 C 4.0625 -4.882812 4.113281 -4.132812 4.21875 -3.59375 C 4.320312 -3.050781 4.5 -2.664062 4.75 -2.4375 C 5.007812 -2.21875 5.359375 -2.109375 5.796875 -2.109375 Z M 5.796875 -2.109375 "/></g></g></g><g fill="#ffffff" fill-opacity="1"><g transform="translate(128.100489, 21.990569)"><g><path d="M 8.921875 -11.671875 C 9.847656 -11.671875 10.300781 -11.191406 10.28125 -10.234375 C 10.269531 -7.304688 10.269531 -4.375 10.28125 -1.4375 C 10.289062 -0.96875 10.171875 -0.609375 9.921875 -0.359375 C 9.671875 -0.117188 9.316406 0 8.859375 0 L 8.609375 0 C 7.816406 0 7.253906 -0.351562 6.921875 -1.0625 L 3.671875 -7.8125 L 3.640625 -7.8125 C 3.660156 -6.625 3.691406 -5.523438 3.734375 -4.515625 C 3.785156 -3.503906 3.84375 -2.492188 3.90625 -1.484375 C 3.957031 -0.492188 3.53125 0 2.625 0 C 2.1875 0 1.847656 -0.117188 1.609375 -0.359375 C 1.378906 -0.609375 1.269531 -0.96875 1.28125 -1.4375 C 1.289062 -4.375 1.289062 -7.304688 1.28125 -10.234375 C 1.269531 -10.703125 1.382812 -11.054688 1.625 -11.296875 C 1.875 -11.546875 2.226562 -11.671875 2.6875 -11.671875 L 3.546875 -11.671875 C 4.335938 -11.671875 4.898438 -11.316406 5.234375 -10.609375 L 7.859375 -5.140625 L 7.90625 -5.140625 C 7.875 -6.054688 7.835938 -6.929688 7.796875 -7.765625 C 7.753906 -8.597656 7.703125 -9.40625 7.640625 -10.1875 C 7.578125 -11.175781 8.003906 -11.671875 8.921875 -11.671875 Z M 8.921875 -11.671875 "/></g></g></g><g fill="#ffffff" fill-opacity="1"><g transform="translate(143.060092, 21.990569)"><g/></g></g><g fill="#ffffff" fill-opacity="1"><g transform="translate(-0.317021, 27.332882)"><g><path d="M 1.421875 -10.046875 L 1.421875 -11.921875 L 11.46875 -18.234375 L 11.46875 -15.625 L 3.984375 -10.984375 L 11.46875 -6.34375 L 11.46875 -3.75 Z M 1.421875 -10.046875 "/></g></g></g><g fill="#ffffff" fill-opacity="1"><g transform="translate(15.589609, 27.332882)"><g><path d="M 1.421875 0 L 6.921875 -25.640625 L 9.4375 -25.640625 L 3.984375 0 Z M 1.421875 0 "/></g></g></g><g fill="#ffffff" fill-opacity="1"><g transform="translate(29.425055, 27.332882)"><g/></g></g><g fill="#ffffff" fill-opacity="1"><g transform="translate(40.409243, 27.332882)"><g/></g></g><g fill="#ffffff" fill-opacity="1"><g transform="translate(51.395502, 27.332882)"><g><path d="M 1.421875 -18.234375 L 11.46875 -11.921875 L 11.46875 -10.046875 L 1.421875 -3.75 L 1.421875 -6.34375 L 8.90625 -10.984375 L 1.421875 -15.625 Z M 1.421875 -18.234375 "/></g></g></g><g clip-path="url(#796ebd01df)"><path fill="#e6e7e8" d="M 37.425781 9.347656 C 37.972656 9.347656 38.515625 9.386719 39.050781 9.457031 C 39.507812 9.515625 39.949219 9.601562 40.371094 9.703125 C 40.792969 9.238281 41.285156 8.789062 41.847656 8.347656 C 42.488281 7.847656 43.226562 7.359375 44.074219 6.882812 C 44.285156 6.761719 44.554688 6.835938 44.675781 7.046875 C 45.121094 7.792969 45.515625 8.882812 45.796875 10.066406 C 46.070312 11.203125 46.242188 12.433594 46.265625 13.53125 C 46.699219 14.140625 47.039062 14.800781 47.277344 15.5 C 47.519531 16.222656 47.652344 16.980469 47.652344 17.761719 C 47.652344 20.101562 46.492188 22.214844 44.621094 23.738281 C 42.773438 25.242188 40.230469 26.175781 37.425781 26.175781 C 34.617188 26.175781 32.074219 25.242188 30.226562 23.738281 C 28.351562 22.214844 27.195312 20.101562 27.195312 17.761719 C 27.195312 16.980469 27.328125 16.222656 27.570312 15.5 C 27.804688 14.800781 28.148438 14.140625 28.582031 13.53125 C 28.601562 12.433594 28.777344 11.203125 29.046875 10.066406 C 29.335938 8.878906 29.730469 7.785156 30.175781 7.035156 C 30.300781 6.832031 30.566406 6.761719 30.773438 6.882812 C 31.621094 7.359375 32.359375 7.847656 33 8.347656 C 33.566406 8.789062 34.054688 9.238281 34.476562 9.703125 C 34.898438 9.601562 35.339844 9.515625 35.792969 9.457031 C 36.332031 9.386719 36.878906 9.347656 37.425781 9.347656 Z M 38.941406 10.332031 C 38.453125 10.265625 37.945312 10.230469 37.425781 10.230469 C 36.898438 10.230469 36.394531 10.265625 35.910156 10.332031 C 35.410156 10.398438 34.921875 10.496094 34.441406 10.625 C 34.285156 10.667969 34.109375 10.621094 33.992188 10.488281 C 33.566406 9.992188 33.054688 9.511719 32.457031 9.042969 C 31.949219 8.648438 31.375 8.257812 30.726562 7.875 C 30.410156 8.519531 30.125 9.363281 29.90625 10.273438 C 29.636719 11.390625 29.472656 12.59375 29.460938 13.65625 C 29.464844 13.753906 29.4375 13.851562 29.378906 13.9375 C 28.957031 14.507812 28.628906 15.128906 28.40625 15.78125 C 28.195312 16.410156 28.082031 17.074219 28.082031 17.761719 C 28.082031 19.820312 29.113281 21.695312 30.78125 23.054688 C 32.476562 24.433594 34.824219 25.289062 37.425781 25.289062 C 40.023438 25.289062 42.371094 24.433594 44.0625 23.054688 C 45.734375 21.695312 46.765625 19.820312 46.765625 17.761719 C 46.765625 17.074219 46.652344 16.410156 46.4375 15.78125 C 46.21875 15.128906 45.890625 14.507812 45.472656 13.9375 C 45.417969 13.863281 45.386719 13.777344 45.386719 13.679688 C 45.375 12.613281 45.210938 11.394531 44.941406 10.273438 C 44.722656 9.363281 44.4375 8.519531 44.121094 7.875 C 43.46875 8.257812 42.894531 8.648438 42.390625 9.042969 C 41.800781 9.503906 41.300781 9.976562 40.875 10.460938 C 40.769531 10.605469 40.585938 10.675781 40.40625 10.625 C 39.925781 10.496094 39.433594 10.398438 38.941406 10.332031 Z M 38.941406 10.332031 " fill-opacity="1" fill-rule="nonzero"/></g><g fill="#ffffff" fill-opacity="1"><g transform="translate(141.140379, 21.279957)"><g><path d="M 1.21875 0.03125 C 1.0625 0.03125 0.929688 -0.0195312 0.828125 -0.125 C 0.722656 -0.238281 0.671875 -0.367188 0.671875 -0.515625 L 0.671875 -0.578125 C 0.671875 -0.722656 0.722656 -0.847656 0.828125 -0.953125 C 0.929688 -1.066406 1.0625 -1.125 1.21875 -1.125 L 1.3125 -1.125 C 1.457031 -1.125 1.582031 -1.066406 1.6875 -0.953125 C 1.800781 -0.847656 1.859375 -0.722656 1.859375 -0.578125 L 1.859375 -0.515625 C 1.859375 -0.367188 1.800781 -0.238281 1.6875 -0.125 C 1.582031 -0.0195312 1.457031 0.03125 1.3125 0.03125 Z M 1.21875 0.03125 "/></g></g></g><g fill="#ffffff" fill-opacity="1"><g transform="translate(144.960609, 21.279957)"><g><path d="M 1.375 0 C 1.257812 0 1.15625 -0.0390625 1.0625 -0.125 C 0.976562 -0.207031 0.9375 -0.3125 0.9375 -0.4375 L 0.9375 -6.34375 C 0.9375 -6.457031 0.976562 -6.554688 1.0625 -6.640625 C 1.15625 -6.734375 1.257812 -6.78125 1.375 -6.78125 L 3.328125 -6.78125 C 4.066406 -6.78125 4.691406 -6.613281 5.203125 -6.28125 C 5.722656 -5.957031 6.113281 -5.535156 6.375 -5.015625 C 6.632812 -4.503906 6.765625 -3.960938 6.765625 -3.390625 C 6.765625 -2.816406 6.632812 -2.269531 6.375 -1.75 C 6.113281 -1.238281 5.722656 -0.816406 5.203125 -0.484375 C 4.691406 -0.160156 4.066406 0 3.328125 0 Z M 3.234375 -0.828125 C 3.765625 -0.828125 4.226562 -0.9375 4.625 -1.15625 C 5.03125 -1.375 5.34375 -1.675781 5.5625 -2.0625 C 5.78125 -2.445312 5.890625 -2.890625 5.890625 -3.390625 C 5.890625 -3.898438 5.78125 -4.347656 5.5625 -4.734375 C 5.34375 -5.117188 5.03125 -5.414062 4.625 -5.625 C 4.226562 -5.84375 3.765625 -5.953125 3.234375 -5.953125 L 1.828125 -5.953125 L 1.828125 -0.828125 Z M 3.234375 -0.828125 "/></g></g></g><g fill="#ffffff" fill-opacity="1"><g transform="translate(153.552878, 21.279957)"><g><path d="M 2.984375 0.09375 C 2.191406 0.09375 1.570312 -0.128906 1.125 -0.578125 C 0.6875 -1.023438 0.46875 -1.660156 0.46875 -2.484375 C 0.46875 -2.941406 0.550781 -3.363281 0.71875 -3.75 C 0.882812 -4.132812 1.140625 -4.445312 1.484375 -4.6875 C 1.835938 -4.925781 2.273438 -5.046875 2.796875 -5.046875 C 3.273438 -5.046875 3.6875 -4.9375 4.03125 -4.71875 C 4.382812 -4.5 4.648438 -4.203125 4.828125 -3.828125 C 5.015625 -3.453125 5.109375 -3.046875 5.109375 -2.609375 C 5.109375 -2.484375 5.066406 -2.378906 4.984375 -2.296875 C 4.898438 -2.210938 4.789062 -2.171875 4.65625 -2.171875 L 1.359375 -2.171875 C 1.410156 -1.710938 1.578125 -1.359375 1.859375 -1.109375 C 2.148438 -0.859375 2.550781 -0.734375 3.0625 -0.734375 C 3.332031 -0.734375 3.566406 -0.757812 3.765625 -0.8125 C 3.972656 -0.863281 4.175781 -0.9375 4.375 -1.03125 C 4.425781 -1.050781 4.484375 -1.0625 4.546875 -1.0625 C 4.648438 -1.0625 4.738281 -1.023438 4.8125 -0.953125 C 4.894531 -0.890625 4.9375 -0.800781 4.9375 -0.6875 C 4.9375 -0.539062 4.851562 -0.421875 4.6875 -0.328125 C 4.4375 -0.179688 4.1875 -0.0703125 3.9375 0 C 3.6875 0.0625 3.367188 0.09375 2.984375 0.09375 Z M 4.234375 -2.890625 C 4.210938 -3.203125 4.128906 -3.460938 3.984375 -3.671875 C 3.835938 -3.890625 3.65625 -4.050781 3.4375 -4.15625 C 3.226562 -4.257812 3.015625 -4.3125 2.796875 -4.3125 C 2.566406 -4.3125 2.34375 -4.257812 2.125 -4.15625 C 1.914062 -4.050781 1.738281 -3.890625 1.59375 -3.671875 C 1.457031 -3.460938 1.378906 -3.203125 1.359375 -2.890625 Z M 4.234375 -2.890625 "/></g></g></g><g fill="#ffffff" fill-opacity="1"><g transform="translate(160.347129, 21.279957)"><g><path d="M 2.53125 0.046875 C 2.414062 0.046875 2.304688 0.015625 2.203125 -0.046875 C 2.109375 -0.117188 2.039062 -0.207031 2 -0.3125 L 0.296875 -4.359375 C 0.265625 -4.429688 0.25 -4.5 0.25 -4.5625 C 0.25 -4.6875 0.289062 -4.789062 0.375 -4.875 C 0.457031 -4.957031 0.5625 -5 0.6875 -5 C 0.769531 -5 0.847656 -4.972656 0.921875 -4.921875 C 1.003906 -4.878906 1.0625 -4.820312 1.09375 -4.75 L 2.578125 -0.984375 L 4.0625 -4.75 C 4.09375 -4.820312 4.144531 -4.878906 4.21875 -4.921875 C 4.289062 -4.972656 4.367188 -5 4.453125 -5 C 4.578125 -5 4.679688 -4.957031 4.765625 -4.875 C 4.847656 -4.789062 4.890625 -4.6875 4.890625 -4.5625 C 4.890625 -4.5 4.875 -4.429688 4.84375 -4.359375 L 3.15625 -0.3125 C 3.113281 -0.207031 3.039062 -0.117188 2.9375 -0.046875 C 2.84375 0.015625 2.738281 0.046875 2.625 0.046875 Z M 2.53125 0.046875 "/></g></g></g></svg>