<svg xmlns="http://www.w3.org/2000/svg" xmlns:xlink="http://www.w3.org/1999/xlink" width="400" zoomAndPan="magnify" viewBox="0 0 300 187.499995" height="250" preserveAspectRatio="xMidYMid meet" version="1.0"><defs><g/><clipPath id="bd4b93c54e"><path d="M 37.21875 6.09375 L 263.117188 6.09375 L 263.117188 181.128906 L 37.21875 181.128906 Z M 37.21875 6.09375 " clip-rule="nonzero"/></clipPath></defs><g clip-path="url(#bd4b93c54e)"><path fill="#000000" d="M 263.085938 20.757812 L 263.085938 13.472656 L 255.800781 13.472656 L 255.800781 6.1875 L 44.476562 6.1875 L 44.476562 13.472656 L 37.1875 13.472656 L 37.1875 144.613281 L 44.476562 144.613281 L 44.476562 151.898438 L 51.765625 151.898438 L 51.765625 159.1875 L 139.203125 159.1875 L 139.203125 173.757812 L 146.492188 173.757812 L 146.492188 181.042969 L 153.777344 181.042969 L 153.777344 173.753906 L 161.066406 173.753906 L 161.066406 159.179688 C 190.214844 159.179688 219.363281 159.179688 248.507812 159.179688 L 248.507812 151.894531 L 255.792969 151.894531 L 255.792969 144.609375 L 263.082031 144.609375 L 263.082031 20.757812 Z M 263.085938 20.757812 " fill-opacity="1" fill-rule="evenodd"/></g><path fill="#000000" d="M 131.921875 144.613281 L 51.765625 144.613281 L 51.765625 137.328125 L 44.476562 137.328125 L 44.476562 20.757812 L 51.765625 20.757812 L 51.765625 13.472656 L 248.511719 13.472656 L 248.511719 20.757812 L 255.800781 20.757812 L 255.800781 137.328125 L 248.511719 137.328125 L 248.511719 144.613281 L 161.066406 144.613281 L 161.066406 151.898438 L 153.777344 151.898438 L 153.777344 159.179688 L 146.496094 159.179688 L 146.496094 151.898438 L 139.210938 151.898438 L 139.210938 144.613281 Z M 131.921875 144.613281 " fill-opacity="1" fill-rule="evenodd"/><path fill="#ffffff" d="M 44.476562 130.042969 L 44.476562 137.328125 L 51.765625 137.328125 L 51.765625 144.613281 L 139.210938 144.613281 L 139.210938 151.898438 L 146.496094 151.898438 L 146.496094 159.179688 L 153.777344 159.179688 L 153.777344 151.898438 L 161.066406 151.898438 L 161.066406 144.613281 L 248.511719 144.613281 L 248.511719 137.328125 L 255.800781 137.328125 L 255.800781 20.757812 L 248.511719 20.757812 L 248.511719 13.472656 L 51.765625 13.472656 L 51.765625 20.757812 L 44.476562 20.757812 Z M 44.476562 130.042969 " fill-opacity="1" fill-rule="evenodd"/><path fill="#999999" d="M 51.765625 137.328125 L 51.765625 130.042969 L 44.476562 130.042969 L 44.476562 137.328125 L 51.765625 137.328125 L 51.765625 144.613281 L 139.210938 144.613281 L 139.210938 151.898438 L 146.496094 151.898438 L 146.496094 159.179688 L 153.777344 159.179688 L 153.777344 151.898438 L 161.066406 151.898438 L 161.066406 144.613281 L 248.511719 144.613281 L 248.511719 137.328125 L 255.800781 137.328125 L 255.800781 130.042969 L 248.511719 130.042969 L 248.511719 137.328125 L 161.066406 137.328125 L 161.066406 144.613281 L 153.777344 144.613281 L 153.777344 151.898438 L 146.496094 151.898438 L 146.496094 144.613281 L 139.210938 144.613281 L 139.210938 137.328125 Z M 51.765625 137.328125 " fill-opacity="1" fill-rule="evenodd"/><g fill="#000000" fill-opacity="1"><g transform="translate(86.581688, 56.462014)"><g><path d="M 25.1875 -5.59375 L 25.1875 0 L 8.390625 0 L 8.390625 -5.59375 Z M 2.796875 -5.59375 L 2.796875 -22.390625 L 8.390625 -22.390625 L 8.390625 -5.59375 Z M 8.390625 -22.390625 L 8.390625 -27.984375 L 25.1875 -27.984375 L 25.1875 -22.390625 Z M 25.1875 -5.59375 L 25.1875 -22.390625 L 30.78125 -22.390625 L 30.78125 -5.59375 Z M 25.1875 -5.59375 "/></g></g></g><g fill="#000000" fill-opacity="1"><g transform="translate(120.172117, 56.462014)"><g><path d="M 2.796875 0 L 2.796875 -27.984375 L 25.1875 -27.984375 L 25.1875 -22.390625 L 8.390625 -22.390625 L 8.390625 -5.59375 L 25.1875 -5.59375 L 25.1875 0 Z M 25.1875 -5.59375 L 25.1875 -22.390625 L 30.78125 -22.390625 L 30.78125 -5.59375 Z M 25.1875 -5.59375 "/></g></g></g><g fill="#000000" fill-opacity="1"><g transform="translate(153.762545, 56.462014)"><g><path d="M 2.796875 0 L 2.796875 -5.59375 L 8.390625 -5.59375 L 8.390625 -11.203125 L 2.796875 -11.203125 L 2.796875 -16.796875 L 19.59375 -16.796875 L 19.59375 -11.203125 L 14 -11.203125 L 14 -5.59375 L 19.59375 -5.59375 L 19.59375 0 Z M 8.390625 -22.390625 L 8.390625 -27.984375 L 14 -27.984375 L 14 -22.390625 Z M 8.390625 -22.390625 "/></g></g></g><g fill="#000000" fill-opacity="1"><g transform="translate(176.156165, 56.462014)"><g><path d="M 25.1875 -5.59375 L 25.1875 0 L 8.390625 0 L 8.390625 -5.59375 Z M 2.796875 -5.59375 L 2.796875 -22.390625 L 8.390625 -22.390625 L 8.390625 -5.59375 Z M 8.390625 -22.390625 L 8.390625 -27.984375 L 25.1875 -27.984375 L 25.1875 -22.390625 Z M 25.1875 -5.59375 L 25.1875 -22.390625 L 30.78125 -22.390625 L 30.78125 -5.59375 Z M 25.1875 -5.59375 "/></g></g></g><g fill="#000000" fill-opacity="1"><g transform="translate(97.789404, 111.446212)"><g><path d="M 2.796875 0 L 2.796875 -27.984375 L 25.1875 -27.984375 L 25.1875 -22.390625 L 8.390625 -22.390625 L 8.390625 -11.203125 L 25.1875 -11.203125 L 25.1875 -5.59375 L 8.390625 -5.59375 L 8.390625 0 Z M 25.1875 -11.203125 L 25.1875 -22.390625 L 30.78125 -22.390625 L 30.78125 -11.203125 Z M 25.1875 -11.203125 "/></g></g></g><g fill="#000000" fill-opacity="1"><g transform="translate(131.379833, 111.446212)"><g><path d="M 2.796875 0 L 2.796875 -27.984375 L 8.390625 -27.984375 L 8.390625 -16.796875 L 25.1875 -16.796875 L 25.1875 -27.984375 L 30.78125 -27.984375 L 30.78125 0 L 25.1875 0 L 25.1875 -11.203125 L 8.390625 -11.203125 L 8.390625 0 Z M 2.796875 0 "/></g></g></g><g fill="#000000" fill-opacity="1"><g transform="translate(164.970262, 111.446212)"><g><path d="M 2.796875 0 L 2.796875 -27.984375 L 25.1875 -27.984375 L 25.1875 -22.390625 L 8.390625 -22.390625 L 8.390625 -11.203125 L 25.1875 -11.203125 L 25.1875 -5.59375 L 8.390625 -5.59375 L 8.390625 0 Z M 25.1875 -11.203125 L 25.1875 -22.390625 L 30.78125 -22.390625 L 30.78125 -11.203125 Z M 25.1875 -11.203125 "/></g></g></g></svg>