<svg xmlns="http://www.w3.org/2000/svg" xmlns:xlink="http://www.w3.org/1999/xlink" width="400" zoomAndPan="magnify" viewBox="0 0 300 187.499995" height="250" preserveAspectRatio="xMidYMid meet" version="1.0"><defs><g/><clipPath id="3be4b5b38c"><path d="M 41.046875 9.0625 L 258.71875 9.0625 L 258.71875 178.113281 L 41.046875 178.113281 Z M 41.046875 9.0625 " clip-rule="nonzero"/></clipPath></defs><g clip-path="url(#3be4b5b38c)"><path fill="#000000" d="M 258.6875 23.226562 L 258.6875 16.191406 L 251.667969 16.191406 L 251.667969 9.152344 L 48.042969 9.152344 L 48.042969 16.191406 L 41.019531 16.191406 L 41.019531 142.84375 L 48.042969 142.84375 L 48.042969 149.878906 L 55.0625 149.878906 L 55.0625 156.917969 L 139.320312 156.917969 L 139.320312 170.988281 L 146.339844 170.988281 L 146.339844 178.027344 L 153.363281 178.027344 L 153.363281 170.984375 L 160.382812 170.984375 L 160.382812 156.910156 C 188.472656 156.910156 216.558594 156.910156 244.640625 156.910156 L 244.640625 149.875 L 251.660156 149.875 L 251.660156 142.835938 L 258.683594 142.835938 L 258.683594 23.226562 Z M 258.6875 23.226562 " fill-opacity="1" fill-rule="evenodd"/></g><path fill="#000000" d="M 132.300781 142.84375 L 55.0625 142.84375 L 55.0625 135.808594 L 48.042969 135.808594 L 48.042969 23.226562 L 55.0625 23.226562 L 55.0625 16.191406 L 244.644531 16.191406 L 244.644531 23.226562 L 251.667969 23.226562 L 251.667969 135.808594 L 244.644531 135.808594 L 244.644531 142.84375 L 160.382812 142.84375 L 160.382812 149.878906 L 153.363281 149.878906 L 153.363281 156.910156 L 146.347656 156.910156 L 146.347656 149.878906 L 139.324219 149.878906 L 139.324219 142.84375 Z M 132.300781 142.84375 " fill-opacity="1" fill-rule="evenodd"/><path fill="#ffffff" d="M 48.042969 128.769531 L 48.042969 135.808594 L 55.0625 135.808594 L 55.0625 142.84375 L 139.324219 142.84375 L 139.324219 149.878906 L 146.347656 149.878906 L 146.347656 156.910156 L 153.363281 156.910156 L 153.363281 149.878906 L 160.382812 149.878906 L 160.382812 142.84375 L 244.644531 142.84375 L 244.644531 135.808594 L 251.667969 135.808594 L 251.667969 23.226562 L 244.644531 23.226562 L 244.644531 16.191406 L 55.0625 16.191406 L 55.0625 23.226562 L 48.042969 23.226562 Z M 48.042969 128.769531 " fill-opacity="1" fill-rule="evenodd"/><path fill="#999999" d="M 55.0625 135.808594 L 55.0625 128.769531 L 48.042969 128.769531 L 48.042969 135.808594 L 55.0625 135.808594 L 55.0625 142.84375 L 139.324219 142.84375 L 139.324219 149.878906 L 146.347656 149.878906 L 146.347656 156.910156 L 153.363281 156.910156 L 153.363281 149.878906 L 160.382812 149.878906 L 160.382812 142.84375 L 244.644531 142.84375 L 244.644531 135.808594 L 251.667969 135.808594 L 251.667969 128.769531 L 244.644531 128.769531 L 244.644531 135.808594 L 160.382812 135.808594 L 160.382812 142.84375 L 153.363281 142.84375 L 153.363281 149.878906 L 146.347656 149.878906 L 146.347656 142.84375 L 139.324219 142.84375 L 139.324219 135.808594 Z M 55.0625 135.808594 " fill-opacity="1" fill-rule="evenodd"/><g fill="#000000" fill-opacity="1"><g transform="translate(69.394247, 89.114998)"><g><path d="M 3.015625 12.0625 L 3.015625 -6.03125 L 9.046875 -6.03125 L 9.046875 12.0625 Z M 3.015625 -12.0625 L 3.015625 -18.09375 L 9.046875 -18.09375 L 9.046875 -12.0625 Z M 3.015625 -12.0625 "/></g></g></g><g fill="#000000" fill-opacity="1"><g transform="translate(81.460777, 89.114998)"><g><path d="M 27.15625 0 L 27.15625 -18.09375 L 21.109375 -18.09375 L 21.109375 -24.125 L 27.15625 -24.125 L 27.15625 -30.171875 L 33.1875 -30.171875 L 33.1875 0 Z M 3.015625 0 L 3.015625 -30.171875 L 9.046875 -30.171875 L 9.046875 -24.125 L 15.078125 -24.125 L 15.078125 -18.09375 L 9.046875 -18.09375 L 9.046875 0 Z M 15.078125 -12.0625 L 15.078125 -18.09375 L 21.109375 -18.09375 L 21.109375 -12.0625 Z M 15.078125 -12.0625 "/></g></g></g><g fill="#000000" fill-opacity="1"><g transform="translate(117.660366, 89.114998)"><g><path d="M 3.015625 0 L 3.015625 -6.03125 L 9.046875 -6.03125 L 9.046875 -24.125 L 3.015625 -24.125 L 3.015625 -30.171875 L 21.109375 -30.171875 L 21.109375 -24.125 L 15.078125 -24.125 L 15.078125 -6.03125 L 21.109375 -6.03125 L 21.109375 0 Z M 3.015625 0 "/></g></g></g><g fill="#000000" fill-opacity="1"><g transform="translate(141.793426, 89.114998)"><g><path d="M 3.015625 0 L 3.015625 -24.125 L 9.046875 -24.125 L 9.046875 -12.0625 L 27.15625 -12.0625 L 27.15625 -24.125 L 33.1875 -24.125 L 33.1875 0 L 27.15625 0 L 27.15625 -6.03125 L 9.046875 -6.03125 L 9.046875 0 Z M 9.046875 -24.125 L 9.046875 -30.171875 L 27.15625 -30.171875 L 27.15625 -24.125 Z M 9.046875 -24.125 "/></g></g></g><g fill="#000000" fill-opacity="1"><g transform="translate(177.993015, 89.114998)"><g><path d="M 27.15625 -6.03125 L 27.15625 0 L 9.046875 0 L 9.046875 -6.03125 Z M 3.015625 -6.03125 L 3.015625 -30.171875 L 9.046875 -30.171875 L 9.046875 -6.03125 Z M 27.15625 -6.03125 L 27.15625 -30.171875 L 33.1875 -30.171875 L 33.1875 -6.03125 Z M 27.15625 -6.03125 "/></g></g></g><g fill="#000000" fill-opacity="1"><g transform="translate(214.192604, 89.114998)"><g><path d="M 3.015625 -12.0625 L 3.015625 -30.171875 L 9.046875 -30.171875 L 9.046875 -12.0625 Z M 3.015625 0 L 3.015625 -6.03125 L 9.046875 -6.03125 L 9.046875 0 Z M 3.015625 0 "/></g></g></g><g fill="#000000" fill-opacity="1"><g transform="translate(226.285683, 89.114998)"><g/></g></g></svg>